<svg width="18" height="18" viewBox="0 0 18 18" fill="none" xmlns="http://www.w3.org/2000/svg">
<path d="M8.89752 0C3.98361 0 0 3.92239 0 8.76079C0 13.1003 3.20773 16.6941 7.41359 17.39V10.5885H5.26725V8.14096H7.41359V6.33621C7.41359 4.24219 8.71252 3.10106 10.61 3.10106C11.5187 3.10106 12.2997 3.16774 12.5264 3.19711V5.38592L11.2104 5.38655C10.1787 5.38655 9.97982 5.86916 9.97982 6.57762V8.1397H12.4415L12.1204 10.5873H9.97982V17.4485C14.382 16.921 17.7949 13.2356 17.7949 8.75829C17.7949 3.92239 13.8113 0 8.89752 0Z" fill="white"/>
</svg>
