<svg width="26" height="26" viewBox="0 0 26 26" fill="none" xmlns="http://www.w3.org/2000/svg">
<path fill-rule="evenodd" clip-rule="evenodd" d="M2.16667 3.25008C2.16667 2.65177 2.6517 2.16675 3.25001 2.16675H10.8333C11.4316 2.16675 11.9167 2.65177 11.9167 3.25008V10.8334C11.9167 11.4317 11.4316 11.9167 10.8333 11.9167H3.25001C2.6517 11.9167 2.16667 11.4317 2.16667 10.8334V3.25008ZM4.33334 4.33341V9.75008H9.75001V4.33341H4.33334Z" fill="#0A1B5F"/>
<path fill-rule="evenodd" clip-rule="evenodd" d="M14.0833 3.25008C14.0833 2.65177 14.5684 2.16675 15.1667 2.16675H22.75C23.3483 2.16675 23.8333 2.65177 23.8333 3.25008V10.8334C23.8333 11.4317 23.3483 11.9167 22.75 11.9167H15.1667C14.5684 11.9167 14.0833 11.4317 14.0833 10.8334V3.25008ZM16.25 4.33341V9.75008H21.6667V4.33341H16.25Z" fill="#0A1B5F"/>
<path fill-rule="evenodd" clip-rule="evenodd" d="M14.0833 15.1666C14.0833 14.5683 14.5684 14.0833 15.1667 14.0833H22.75C23.3483 14.0833 23.8333 14.5683 23.8333 15.1666V22.7499C23.8333 23.3482 23.3483 23.8333 22.75 23.8333H15.1667C14.5684 23.8333 14.0833 23.3482 14.0833 22.7499V15.1666ZM16.25 16.2499V21.6666H21.6667V16.2499H16.25Z" fill="#0A1B5F"/>
<path fill-rule="evenodd" clip-rule="evenodd" d="M2.16667 15.1666C2.16667 14.5683 2.6517 14.0833 3.25001 14.0833H10.8333C11.4316 14.0833 11.9167 14.5683 11.9167 15.1666V22.7499C11.9167 23.3482 11.4316 23.8333 10.8333 23.8333H3.25001C2.6517 23.8333 2.16667 23.3482 2.16667 22.7499V15.1666ZM4.33334 16.2499V21.6666H9.75001V16.2499H4.33334Z" fill="#0A1B5F"/>
</svg>
