<svg width="19" height="18" viewBox="0 0 19 18" fill="none" xmlns="http://www.w3.org/2000/svg">
<path d="M9.5011 0C4.60718 0 0.638512 3.90768 0.638512 8.72641C0.638512 13.5451 4.60718 17.4528 9.5011 17.4528C14.395 17.4528 18.3637 13.5451 18.3637 8.72641C18.3637 3.90768 14.395 0 9.5011 0ZM6.92573 13.1919H4.76729V6.79793H6.92573V13.1919ZM5.84658 5.92484H5.83252C5.10821 5.92484 4.63977 5.4339 4.63977 4.82032C4.63977 4.1929 5.12255 3.71554 5.86091 3.71554C6.59928 3.71554 7.05366 4.1929 7.06773 4.82032C7.06773 5.4339 6.59928 5.92484 5.84658 5.92484ZM14.7086 13.1919H12.5505V9.77127C12.5505 8.91162 12.2379 8.32535 11.457 8.32535C10.8607 8.32535 10.5056 8.72081 10.3495 9.10257C10.2925 9.23918 10.2785 9.43013 10.2785 9.6212V13.1919H8.12024C8.12024 13.1919 8.1485 7.39779 8.12024 6.79793H10.2785V7.70325C10.5654 7.26757 11.0786 6.64787 12.2237 6.64787C13.6438 6.64787 14.7086 7.56171 14.7086 9.5256V13.1919Z" fill="white"/>
</svg>
