<svg width="11" height="11" viewBox="0 0 11 11" fill="none" xmlns="http://www.w3.org/2000/svg">
<path d="M10.0833 7.75488V9.12988C10.0839 9.25753 10.0577 9.38387 10.0066 9.50083C9.95543 9.61779 9.88043 9.72277 9.78637 9.80907C9.69231 9.89536 9.58126 9.96106 9.46034 10.002C9.33942 10.0428 9.21129 10.058 9.08417 10.0465C7.6738 9.8933 6.31904 9.41136 5.12875 8.63946C4.02134 7.93577 3.08244 6.99688 2.37875 5.88946C1.60416 4.69377 1.12211 3.33242 0.971665 1.91571C0.960212 1.78897 0.975275 1.66123 1.01589 1.54063C1.05651 1.42002 1.1218 1.3092 1.2076 1.21521C1.2934 1.12122 1.39783 1.04612 1.51424 0.994704C1.63065 0.943285 1.75649 0.916668 1.88375 0.916548H3.25875C3.48118 0.914359 3.69682 0.993126 3.86547 1.13817C4.03413 1.28321 4.14428 1.48463 4.17542 1.70488C4.23345 2.14491 4.34108 2.57696 4.49625 2.9928C4.55791 3.15685 4.57126 3.33513 4.53471 3.50653C4.49815 3.67794 4.41323 3.83527 4.29 3.95988L3.70792 4.54196C4.36038 5.68942 5.31046 6.6395 6.45792 7.29196L7.04 6.70988C7.16461 6.58665 7.32194 6.50173 7.49335 6.46517C7.66475 6.42862 7.84303 6.44196 8.00708 6.50363C8.42292 6.6588 8.85497 6.76643 9.295 6.82446C9.51764 6.85587 9.72097 6.96802 9.86633 7.13957C10.0117 7.31111 10.0889 7.5301 10.0833 7.75488Z" stroke="white" stroke-width="0.8" stroke-linecap="round" stroke-linejoin="round"/>
</svg>
