<svg width="36" height="37" viewBox="0 0 36 37" fill="none" xmlns="http://www.w3.org/2000/svg">
<path d="M25.2687 18.2256C24.7148 18.2256 24.1734 18.3898 23.7129 18.6975C23.2524 19.0052 22.8934 19.4426 22.6815 19.9543C22.4695 20.466 22.4141 21.029 22.5221 21.5723C22.6302 22.1155 22.8969 22.6145 23.2885 23.0061C23.6802 23.3977 24.1791 23.6644 24.7223 23.7725C25.2656 23.8805 25.8286 23.8251 26.3403 23.6131C26.852 23.4012 27.2894 23.0423 27.5971 22.5817C27.9048 22.1212 28.069 21.5798 28.069 21.0259C28.0683 20.2835 27.773 19.5716 27.248 19.0466C26.723 18.5216 26.0111 18.2263 25.2687 18.2256ZM25.2687 22.6827C24.9416 22.6827 24.6218 22.5857 24.3498 22.4039C24.0779 22.2222 23.8659 21.9639 23.7407 21.6617C23.6155 21.3595 23.5828 21.027 23.6466 20.7062C23.7104 20.3853 23.8679 20.0907 24.0992 19.8594C24.3305 19.6281 24.6252 19.4706 24.946 19.4067C25.2668 19.3429 25.5994 19.3757 25.9016 19.5009C26.2038 19.626 26.4621 19.838 26.6438 20.11C26.8255 20.382 26.9225 20.7017 26.9225 21.0288C26.9218 21.4672 26.7473 21.8874 26.4373 22.1974C26.1273 22.5074 25.7071 22.6819 25.2687 22.6827Z" fill="white"/>
<path d="M8.07671 21.0286C8.07671 21.5825 8.24094 22.1239 8.54865 22.5844C8.85636 23.0449 9.29371 23.4039 9.80541 23.6158C10.3171 23.8278 10.8802 23.8832 11.4234 23.7752C11.9666 23.6671 12.4656 23.4004 12.8572 23.0088C13.2488 22.6171 13.5156 22.1182 13.6236 21.575C13.7317 21.0317 13.6762 20.4687 13.4643 19.957C13.2523 19.4453 12.8934 19.0079 12.4329 18.7002C11.9723 18.3925 11.4309 18.2283 10.8771 18.2283C10.1346 18.229 9.42275 18.5243 8.89775 19.0493C8.37275 19.5743 8.07746 20.2862 8.07671 21.0286ZM12.5338 21.0286C12.5338 21.3557 12.4368 21.6755 12.255 21.9475C12.0733 22.2194 11.815 22.4314 11.5128 22.5566C11.2106 22.6818 10.8781 22.7145 10.5573 22.6507C10.2365 22.5869 9.94178 22.4294 9.71048 22.1981C9.47919 21.9668 9.32168 21.6721 9.25786 21.3513C9.19405 21.0305 9.2268 20.6979 9.35198 20.3957C9.47715 20.0935 9.68913 19.8352 9.9611 19.6535C10.2331 19.4718 10.5528 19.3748 10.8799 19.3748C11.3183 19.3755 11.7385 19.55 12.0485 19.86C12.3585 20.17 12.533 20.5902 12.5338 21.0286Z" fill="white"/>
<path d="M6.4401 30.5677C6.4401 28.2747 8.43216 26.4145 10.88 26.4145C11.608 26.4073 12.3269 26.5761 12.9757 26.9065C13.6244 27.2368 14.1838 27.719 14.6061 28.312C14.9453 28.1259 15.299 27.9678 15.6638 27.839C15.1481 27.0423 14.4401 26.3884 13.605 25.9375C12.7699 25.4867 11.8347 25.2534 10.8857 25.2594C7.80445 25.2594 5.29932 27.6355 5.29932 30.5591C5.29932 31.1668 5.63754 32.0095 7.25125 32.5655C8.4271 32.9324 9.65413 33.1085 10.8857 33.0872H11.1437C11.2105 32.6964 11.3131 32.3126 11.4504 31.9407C11.2669 31.9407 11.0777 31.9407 10.8771 31.9407C8.22292 31.9522 6.4401 31.2499 6.4401 30.5677Z" fill="white"/>
<path d="M25.2686 25.2709C24.3196 25.2649 23.3844 25.4981 22.5493 25.949C21.7142 26.3999 21.0062 27.0538 20.4905 27.8505C20.8553 27.9792 21.209 28.1374 21.5482 28.3235C21.9705 27.7305 22.5299 27.2483 23.1786 26.9179C23.8274 26.5876 24.5463 26.4188 25.2743 26.426C27.7221 26.426 29.7142 28.2891 29.7142 30.5792C29.7142 31.2471 27.9314 31.9636 25.2743 31.9636C25.0794 31.9636 24.8931 31.9636 24.7011 31.9636C24.8383 32.3356 24.941 32.7194 25.0078 33.1101H25.2657C27.8454 33.1101 30.8521 32.448 30.8521 30.5792C30.855 27.647 28.3499 25.2709 25.2686 25.2709Z" fill="white"/>
<path d="M18.0743 28.8652C14.9931 28.8652 12.4879 31.2414 12.4879 34.165C12.4879 34.7726 12.8261 35.6153 14.4399 36.1714C15.6155 36.5393 16.8426 36.7164 18.0743 36.6959C20.654 36.6959 23.6607 36.0338 23.6607 34.165C23.6607 31.25 21.1556 28.8652 18.0743 28.8652ZM18.0743 35.5494C15.4173 35.5494 13.6344 34.8328 13.6344 34.165C13.6344 31.872 15.6265 30.0117 18.0743 30.0117C20.5221 30.0117 22.5142 31.8748 22.5142 34.165C22.5142 34.8328 20.7313 35.5494 18.0743 35.5494Z" fill="white"/>
<path d="M15.2741 24.6257C15.2747 25.1795 15.4394 25.7206 15.7474 26.1807C16.0555 26.6409 16.493 26.9994 17.0048 27.2109C17.5165 27.4224 18.0795 27.4774 18.6225 27.3691C19.1656 27.2607 19.6643 26.9938 20.0556 26.602C20.447 26.2103 20.7134 25.7113 20.8212 25.1681C20.929 24.625 20.8734 24.0621 20.6614 23.5506C20.4493 23.039 20.0904 22.6018 19.63 22.2943C19.1695 21.9867 18.6282 21.8225 18.0745 21.8225C17.3315 21.8233 16.6192 22.1189 16.0941 22.6446C15.569 23.1702 15.2741 23.8828 15.2741 24.6257ZM19.7312 24.6257C19.7306 24.9526 19.6332 25.2719 19.4513 25.5435C19.2693 25.815 19.011 26.0265 18.7089 26.1514C18.4068 26.2762 18.0745 26.3087 17.754 26.2448C17.4334 26.1809 17.139 26.0234 16.9079 25.7923C16.6768 25.5612 16.5193 25.2668 16.4554 24.9462C16.3915 24.6257 16.424 24.2934 16.5488 23.9913C16.6736 23.6892 16.8852 23.4309 17.1567 23.2489C17.4282 23.067 17.7476 22.9696 18.0745 22.969C18.5133 22.9698 18.934 23.1447 19.2441 23.4553C19.5541 23.7659 19.7283 24.1868 19.7283 24.6257H19.7312Z" fill="white"/>
<path d="M33.3946 0.637971C33.3404 0.58565 33.2764 0.544518 33.2063 0.516923C33.1362 0.489328 33.0614 0.47581 32.9861 0.47714C32.9108 0.478471 32.8364 0.494625 32.7673 0.524679C32.6983 0.554733 32.6358 0.5981 32.5835 0.652302C32.5311 0.706505 32.49 0.770481 32.4624 0.84058C32.4348 0.910679 32.4213 0.985526 32.4226 1.06085C32.424 1.13617 32.4401 1.2105 32.4702 1.27958C32.5002 1.34866 32.5436 1.41114 32.5978 1.46346C33.5627 2.3981 34.1178 3.67711 34.1414 5.02025C34.1651 6.3634 33.6553 7.66114 32.7239 8.62916C32.6715 8.68334 32.6304 8.74731 32.6027 8.81741C32.5751 8.88751 32.5616 8.96237 32.5629 9.03771C32.5642 9.11305 32.5804 9.18739 32.6105 9.25647C32.6406 9.32555 32.684 9.38803 32.7382 9.44032C32.7924 9.49269 32.8564 9.53386 32.9265 9.56149C32.9966 9.58912 33.0715 9.60265 33.1468 9.60132C33.2221 9.59999 33.2965 9.58382 33.3656 9.55373C33.4346 9.52365 33.4971 9.48024 33.5494 9.42599C34.6923 8.23914 35.3179 6.64743 35.2889 4.99998C35.2599 3.35253 34.5787 1.78384 33.3946 0.637971Z" fill="white"/>
<path d="M30.3277 2.87369C30.2753 2.92787 30.2341 2.99184 30.2065 3.06194C30.1789 3.13205 30.1653 3.20691 30.1667 3.28224C30.168 3.35758 30.1842 3.43192 30.2142 3.501C30.2443 3.57009 30.2877 3.63256 30.342 3.68485C30.5237 3.85973 30.6691 4.06873 30.7699 4.29989C30.8707 4.53104 30.9249 4.7798 30.9294 5.03193C30.9339 5.28406 30.8887 5.53461 30.7962 5.76923C30.7038 6.00385 30.566 6.21793 30.3907 6.39922C30.3383 6.4534 30.2972 6.51737 30.2695 6.58747C30.2419 6.65757 30.2284 6.73243 30.2297 6.80777C30.231 6.88311 30.2472 6.95745 30.2773 7.02653C30.3074 7.09561 30.3508 7.15809 30.405 7.21038C30.5162 7.31273 30.6624 7.36834 30.8135 7.36567C30.9645 7.363 31.1088 7.30226 31.2162 7.19605C31.7759 6.611 32.0819 5.8285 32.0674 5.01894C32.0529 4.20938 31.7191 3.43833 31.1388 2.87369C31.0856 2.8204 31.0223 2.77811 30.9528 2.74926C30.8832 2.72042 30.8086 2.70557 30.7332 2.70557C30.6579 2.70557 30.5833 2.72042 30.5137 2.74926C30.4441 2.77811 30.3809 2.8204 30.3277 2.87369Z" fill="white"/>
<path d="M7.49784 9.87609C7.58698 9.92297 7.6869 9.94553 7.78754 9.9415C7.88818 9.93747 7.98598 9.90701 8.07109 9.85316L12.6571 6.8665C12.7525 6.93183 12.8654 6.9668 12.981 6.96682H13.0154V9.92195C13.0154 10.4001 13.2054 10.8587 13.5435 11.1968C13.8816 11.5349 14.3402 11.7248 14.8183 11.7248H17.2919V14.7144H10.6995C10.5474 14.7144 10.4016 14.7748 10.2941 14.8823C10.1866 14.9898 10.1262 15.1356 10.1262 15.2876V16.5058C10.1262 16.6578 10.1866 16.8036 10.2941 16.9112C10.4016 17.0187 10.5474 17.0791 10.6995 17.0791C10.8515 17.0791 10.9973 17.0187 11.1048 16.9112C11.2123 16.8036 11.2727 16.6578 11.2727 16.5058V15.8609H17.2919V20.0399C17.2919 20.192 17.3523 20.3378 17.4598 20.4453C17.5673 20.5528 17.7131 20.6132 17.8652 20.6132C18.0172 20.6132 18.163 20.5528 18.2705 20.4453C18.378 20.3378 18.4384 20.192 18.4384 20.0399V15.8609H24.3143V16.6319C24.3143 16.784 24.3747 16.9298 24.4822 17.0373C24.5897 17.1448 24.7355 17.2052 24.8876 17.2052C25.0396 17.2052 25.1854 17.1448 25.2929 17.0373C25.4004 16.9298 25.4608 16.784 25.4608 16.6319V15.2876C25.4608 15.1356 25.4004 14.9898 25.2929 14.8823C25.1854 14.7748 25.0396 14.7144 24.8876 14.7144H18.4556V11.722H21.1356C21.1356 11.722 21.6659 11.6876 21.7347 11.6704C22.127 11.5754 22.4762 11.3515 22.7262 11.0344C22.9761 10.7174 23.1125 10.3257 23.1133 9.92195V6.96395H23.1477C23.2633 6.96394 23.3762 6.92897 23.4716 6.86363L28.0577 9.8503C28.1443 9.90658 28.2444 9.93843 28.3476 9.94247C28.4508 9.94652 28.5532 9.92262 28.6439 9.87329C28.7346 9.82396 28.8104 9.75104 28.8631 9.66224C28.9158 9.57343 28.9435 9.47203 28.9433 9.36876V0.580745C28.9425 0.478805 28.9146 0.378926 28.8623 0.291402C28.81 0.203878 28.7354 0.131875 28.646 0.0828143C28.5566 0.0337534 28.4558 0.00940936 28.3539 0.0122913C28.252 0.0151732 28.1527 0.0451769 28.0663 0.0992099L23.6006 3.00275C23.5475 2.93376 23.4794 2.87777 23.4014 2.83903C23.3234 2.8003 23.2377 2.77983 23.1506 2.77918H19.2009C19.0488 2.77918 18.903 2.83958 18.7955 2.94709C18.688 3.05459 18.6276 3.2004 18.6276 3.35244V6.3907C18.6276 6.54273 18.688 6.68854 18.7955 6.79605C18.903 6.90356 19.0488 6.96395 19.2009 6.96395H19.3356V9.92195C19.336 10.1467 19.3788 10.3694 19.4617 10.5783H16.6871C16.77 10.3694 16.8128 10.1467 16.8132 9.92195V6.96395H16.948C17.1 6.96395 17.2458 6.90356 17.3533 6.79605C17.4608 6.68854 17.5212 6.54273 17.5212 6.3907V3.3553C17.5212 3.20327 17.4608 3.05746 17.3533 2.94995C17.2458 2.84244 17.1 2.78205 16.948 2.78205H12.9982C12.9112 2.7827 12.8254 2.80316 12.7474 2.8419C12.6695 2.88064 12.6013 2.93663 12.5482 3.00562L8.08256 0.0992099C7.99597 0.0429274 7.89579 0.0110798 7.7926 0.00703233C7.68941 0.0029849 7.58704 0.026888 7.49631 0.0762157C7.40559 0.125543 7.32987 0.198464 7.27716 0.287271C7.22445 0.376079 7.19672 0.477475 7.19688 0.580745V9.37163C7.19688 9.47504 7.22485 9.57653 7.27783 9.66534C7.33081 9.75415 7.40683 9.82697 7.49784 9.87609ZM23.7239 4.29258L27.8054 1.6384V8.3197L23.7239 5.65979V4.29258ZM21.9668 9.92195C21.9668 10.0955 21.8981 10.2621 21.7756 10.3851C21.6531 10.5081 21.4869 10.5776 21.3133 10.5783H21.1327C20.9591 10.5776 20.7929 10.5081 20.6705 10.3851C20.548 10.2621 20.4792 10.0955 20.4792 9.92195V6.96395H21.964L21.9668 9.92195ZM19.7741 3.92856H22.5773V5.72285H19.9088C19.8634 5.72323 19.8182 5.729 19.7741 5.74005V3.92856ZM15.6667 9.92195C15.6653 10.0148 15.6441 10.1063 15.6046 10.1903C15.5651 10.2743 15.5081 10.349 15.4374 10.4092C15.2744 10.5355 15.0694 10.5949 14.8642 10.5755C14.7753 10.5789 14.6866 10.5646 14.6033 10.5333C14.5201 10.502 14.4439 10.4544 14.3793 10.3932C14.3146 10.3321 14.2629 10.2586 14.2271 10.1772C14.1912 10.0958 14.172 10.008 14.1705 9.91909V6.96395H15.6667V9.92195ZM13.5744 3.92856H16.3776V5.74005C16.3335 5.729 16.2883 5.72323 16.2429 5.72285H13.5772L13.5744 3.92856ZM8.34626 1.63554L12.4278 4.28971V5.65979L8.34339 8.3197L8.34626 1.63554Z" fill="white"/>
<path d="M3.56533 0.652259C3.51209 0.59896 3.44887 0.556677 3.37928 0.527828C3.30969 0.49898 3.23509 0.484131 3.15975 0.484131C3.08442 0.484131 3.00982 0.49898 2.94023 0.527828C2.87064 0.556677 2.80742 0.59896 2.75418 0.652259C1.5741 1.79719 0.895122 3.36263 0.865584 5.00658C0.836045 6.65054 1.45835 8.23936 2.59653 9.42595C2.64882 9.4802 2.7113 9.5236 2.78038 9.55369C2.84946 9.58377 2.9238 9.59995 2.99914 9.60128C3.07448 9.60261 3.14934 9.58907 3.21944 9.56145C3.28954 9.53382 3.35351 9.49265 3.40769 9.44028C3.46194 9.38798 3.50535 9.32551 3.53543 9.25643C3.56552 9.18734 3.58169 9.11301 3.58302 9.03767C3.58435 8.96233 3.57082 8.88747 3.54319 8.81737C3.51556 8.74726 3.47439 8.6833 3.42202 8.62912C2.4906 7.6611 1.98088 6.36335 2.00452 5.02021C2.02815 3.67707 2.58323 2.39806 3.54814 1.46342C3.60258 1.41132 3.64622 1.34899 3.67655 1.28001C3.70688 1.21103 3.72332 1.13674 3.72492 1.0614C3.72651 0.986064 3.71324 0.911149 3.68586 0.840944C3.65848 0.770739 3.61752 0.706621 3.56533 0.652259Z" fill="white"/>
<path d="M5.72366 6.42244C5.38664 6.0442 5.21012 5.54961 5.23153 5.04346C5.25293 4.5373 5.47056 4.05937 5.83831 3.71094C6.38004 3.21507 5.60901 2.36665 5.06155 2.86538C4.46561 3.41758 4.11286 4.18351 4.08063 4.99532C4.04839 5.80714 4.33929 6.59862 4.88958 7.19634C5.37111 7.73233 6.22526 6.9699 5.72366 6.42244Z" fill="white"/>
</svg>
