<?xml version="1.0" standalone="no"?>
<!DOCTYPE svg PUBLIC "-//W3C//DTD SVG 20010904//EN"
 "http://www.w3.org/TR/2001/REC-SVG-20010904/DTD/svg10.dtd">
<svg version="1.0" xmlns="http://www.w3.org/2000/svg"
 width="512.000000pt" height="512.000000pt" viewBox="0 0 512.000000 512.000000"
 preserveAspectRatio="xMidYMid meet">

<g transform="translate(0.000000,512.000000) scale(0.100000,-0.100000)"
fill="#00008B" stroke="none">
<path d="M395 5106 c-181 -44 -346 -213 -384 -394 -7 -36 -11 -275 -11 -745 0
-763 0 -764 62 -880 63 -117 192 -218 323 -253 40 -11 200 -14 765 -14 789 0
779 -1 889 62 71 41 158 128 199 199 63 110 62 100 62 889 0 565 -3 725 -14
765 -35 131 -136 260 -253 323 -117 62 -116 62 -888 61 -514 -1 -713 -4 -750
-13z"/>
<path d="M3206 5104 c-174 -42 -325 -192 -372 -369 -11 -40 -14 -201 -14 -771
0 -691 1 -725 20 -785 37 -121 129 -233 245 -299 106 -60 100 -60 885 -60 565
0 725 3 765 14 131 35 260 136 323 253 62 116 62 117 62 880 0 470 -4 709 -11
745 -39 186 -211 358 -397 397 -85 18 -1430 14 -1506 -5z"/>
<path d="M380 2286 c-128 -36 -257 -139 -318 -253 -62 -116 -62 -117 -62 -880
0 -470 4 -709 11 -745 39 -186 211 -358 397 -397 36 -7 275 -11 745 -11 763 0
764 0 880 62 117 63 218 192 253 323 11 40 14 200 14 765 0 789 1 779 -62 889
-41 71 -128 158 -199 199 -111 63 -99 62 -894 61 -545 -1 -731 -4 -765 -13z"/>
<path d="M3191 2284 c-157 -42 -302 -183 -351 -343 -19 -60 -20 -94 -20 -785
0 -570 3 -731 14 -771 35 -131 136 -260 253 -323 116 -62 117 -62 880 -62 470
0 709 4 745 11 186 39 358 211 397 397 7 36 11 275 11 745 0 763 0 764 -62
880 -63 117 -192 218 -323 253 -76 21 -1467 19 -1544 -2z"/>
</g>
</svg>
