<svg width="19" height="18" viewBox="0 0 19 18" fill="none" xmlns="http://www.w3.org/2000/svg">
<path d="M9.33624 0C4.44231 0 0.473648 3.90768 0.473648 8.72641C0.473648 13.5451 4.44231 17.4528 9.33624 17.4528C14.2302 17.4528 18.1988 13.5451 18.1988 8.72641C18.1988 3.90768 14.2302 0 9.33624 0ZM14.874 8.73533C14.874 8.73533 14.874 10.5051 14.646 11.3585C14.5182 11.8256 14.1442 12.1939 13.6698 12.3196C12.8031 12.5442 9.33624 12.5442 9.33624 12.5442C9.33624 12.5442 5.87848 12.5442 5.00271 12.3107C4.52832 12.185 4.15427 11.8165 4.02647 11.3494C3.79834 10.5051 3.79834 8.72641 3.79834 8.72641C3.79834 8.72641 3.79834 6.95679 4.02647 6.1034C4.15413 5.63629 4.53738 5.25893 5.00271 5.13324C5.86942 4.9086 9.33624 4.9086 9.33624 4.9086C9.33624 4.9086 12.8031 4.9086 13.6698 5.14216C14.1442 5.26785 14.5182 5.63629 14.646 6.1034C14.8832 6.95679 14.874 8.73533 14.874 8.73533Z" fill="white"/>
</svg>
